<svg xmlns="http://www.w3.org/2000/svg" xmlns:xlink="http://www.w3.org/1999/xlink" width="1920" zoomAndPan="magnify"
    viewBox="0 0 1440 809.999993" height="1080" preserveAspectRatio="xMidYMid meet" version="1.0">
    <path fill="rgb(92.549133%, 21.958923%, 23.139954%)"
        d="M 1124.671875 404.980469 C 1124.671875 628.628906 943.425781 809.933594 719.847656 809.933594 C 496.261719 809.933594 315.023438 628.628906 315.023438 404.980469 C 315.023438 181.320312 496.261719 0.0273438 719.847656 0.0273438 C 943.425781 0.0273438 1124.671875 181.320312 1124.671875 404.980469 "
        fill-opacity="1" fill-rule="nonzero" />
    <path fill="rgb(14.509583%, 18.03894%, 31.759644%)"
        d="M 847.894531 140.402344 C 848.347656 142.089844 848.796875 143.777344 849.222656 145.453125 C 848.796875 143.769531 848.347656 142.097656 847.894531 140.402344 "
        fill-opacity="1" fill-rule="nonzero" />
    <path fill="rgb(14.509583%, 18.03894%, 31.759644%)"
        d="M 713.125 16.351562 C 714.234375 16.191406 715.339844 16.046875 716.464844 16.027344 C 715.339844 16.046875 714.234375 16.191406 713.125 16.351562 "
        fill-opacity="1" fill-rule="nonzero" />
    <path fill="rgb(14.509583%, 18.03894%, 31.759644%)"
        d="M 585.445312 350.492188 C 582.558594 347.621094 578.960938 343.855469 575.238281 339.414062 C 578.960938 343.855469 582.558594 347.621094 585.445312 350.492188 "
        fill-opacity="1" fill-rule="nonzero" />
    <path fill="rgb(14.509583%, 18.03894%, 31.759644%)"
        d="M 840.816406 118.859375 C 841.328125 120.078125 841.753906 121.304688 842.222656 122.53125 C 841.753906 121.304688 841.328125 120.078125 840.816406 118.859375 "
        fill-opacity="1" fill-rule="nonzero" />
    <path fill="rgb(14.509583%, 18.03894%, 31.759644%)"
        d="M 844.71875 129.554688 C 845.195312 131.027344 845.636719 132.492188 846.070312 133.96875 C 845.636719 132.492188 845.195312 131.027344 844.71875 129.554688 "
        fill-opacity="1" fill-rule="nonzero" />
    <path fill="rgb(14.509583%, 18.03894%, 31.759644%)"
        d="M 684.433594 36.34375 C 684.945312 35.945312 685.449219 35.535156 685.960938 35.125 C 685.449219 35.535156 684.945312 35.945312 684.433594 36.34375 "
        fill-opacity="1" fill-rule="nonzero" />
    <path fill="rgb(14.509583%, 18.03894%, 31.759644%)"
        d="M 708.609375 17.476562 C 709.675781 17.101562 710.75 16.738281 711.839844 16.515625 C 710.75 16.738281 709.675781 17.101562 708.609375 17.476562 "
        fill-opacity="1" fill-rule="nonzero" />
    <path fill="rgb(14.509583%, 18.03894%, 31.759644%)"
        d="M 698.855469 23.691406 C 700.203125 22.351562 701.582031 21.21875 702.988281 20.253906 C 701.582031 21.21875 700.203125 22.351562 698.855469 23.691406 "
        fill-opacity="1" fill-rule="nonzero" />
    <path fill="rgb(14.509583%, 18.03894%, 31.759644%)"
        d="M 691.726562 30.3125 C 692.058594 30.023438 692.398438 29.707031 692.730469 29.40625 C 692.398438 29.707031 692.058594 30.023438 691.726562 30.3125 "
        fill-opacity="1" fill-rule="nonzero" />
    <path fill="rgb(14.509583%, 18.03894%, 31.759644%)"
        d="M 704.171875 19.589844 C 705.210938 18.960938 706.25 18.347656 707.324219 17.894531 C 706.261719 18.347656 705.210938 18.960938 704.171875 19.589844 "
        fill-opacity="1" fill-rule="nonzero" />
    <path fill="rgb(14.509583%, 18.03894%, 31.759644%)"
        d="M 827.910156 96.0625 C 828.546875 96.949219 829.171875 97.84375 829.792969 98.738281 C 829.171875 97.84375 828.546875 96.957031 827.910156 96.0625 "
        fill-opacity="1" fill-rule="nonzero" />
    <path fill="rgb(14.509583%, 18.03894%, 31.759644%)"
        d="M 870.195312 344.835938 C 869.378906 345.925781 868.578125 346.972656 867.820312 347.9375 C 868.585938 346.972656 869.378906 345.925781 870.195312 344.835938 "
        fill-opacity="1" fill-rule="nonzero" />
    <path fill="rgb(14.509583%, 18.03894%, 31.759644%)"
        d="M 872.777344 341.289062 C 872.140625 342.191406 871.5 343.070312 870.878906 343.914062 C 871.5 343.070312 872.140625 342.191406 872.777344 341.289062 "
        fill-opacity="1" fill-rule="nonzero" />
    <path fill="rgb(14.509583%, 18.03894%, 31.759644%)"
        d="M 596.554688 231.984375 C 634.863281 216.292969 688.269531 209.945312 722.402344 209.945312 C 767.542969 209.945312 814.058594 209.945312 846.882812 225.457031 C 850.433594 227.132812 853.910156 228.964844 857.292969 230.953125 C 883.496094 246.351562 896.582031 277.523438 889.414062 307.023438 C 894.101562 288.097656 894.542969 268.820312 887.925781 255.5625 C 880.625 240.964844 881.84375 214.207031 866.253906 192.886719 C 857.230469 180.546875 853.847656 163.964844 849.488281 146.539062 C 834.367188 150.285156 817.097656 172.347656 797.652344 185.320312 C 773.03125 201.738281 803.109375 162.515625 815.625 129.851562 C 821.996094 113.242188 819.136719 94.503906 814.789062 80.085938 C 798.253906 61.960938 778.714844 46.613281 766.914062 39.777344 C 753.90625 32.238281 734.398438 15.851562 716.710938 16.027344 C 711.882812 19.617188 708.601562 28.949219 704.617188 39.515625 C 698.585938 55.5625 714.652344 66.734375 725.757812 78.464844 C 736.867188 90.210938 694.589844 76.761719 687.167969 56.25 C 682.304688 42.8125 675.992188 43.707031 672.210938 45.921875 C 660.480469 55.28125 649.082031 65.835938 638.652344 85.328125 C 637.265625 87.933594 635.996094 90.660156 634.632812 93.304688 C 635.824219 105.164062 638.738281 118.492188 645.09375 130.644531 C 661.757812 162.515625 668.886719 173.976562 679.910156 178.28125 C 690.941406 182.582031 691.035156 195.785156 668.640625 189.1875 C 646.261719 182.582031 639.566406 147.628906 621.027344 164.195312 C 608.617188 175.28125 600.890625 183.257812 593.691406 188.070312 C 593.113281 189.671875 592.464844 191.300781 591.902344 192.886719 C 579.761719 227.125 559.328125 253.183594 554.472656 284.066406 C 558.484375 260.769531 574.507812 241.007812 596.554688 231.984375 "
        fill-opacity="1" fill-rule="nonzero" />
    <path fill="rgb(14.509583%, 18.03894%, 31.759644%)"
        d="M 875.546875 337.277344 C 874.898438 338.246094 874.253906 339.191406 873.613281 340.105469 C 874.261719 339.191406 874.898438 338.246094 875.546875 337.277344 "
        fill-opacity="1" fill-rule="nonzero" />
    <path fill="rgb(10.198975%, 11.369324%, 19.999695%)"
        d="M 1026.535156 514.636719 C 1003.433594 469.632812 986.410156 418.546875 954.796875 406.285156 C 923.183594 394.019531 860.671875 356.515625 860.671875 356.515625 C 860.671875 356.515625 863.707031 353.203125 867.804688 347.96875 C 865.503906 350.332031 863.125 353.117188 860.671875 356.515625 C 840.101562 384.988281 794.90625 405.167969 766.632812 427.316406 C 738.367188 449.460938 729.847656 498.121094 729.847656 498.121094 C 729.847656 498.121094 717.691406 486.761719 690.941406 433.082031 C 664.195312 379.414062 591.902344 356.515625 591.902344 356.515625 C 591.902344 356.515625 591.246094 355.964844 590.113281 354.933594 C 591.246094 355.964844 591.902344 356.515625 591.902344 356.515625 C 591.902344 356.515625 571.78125 363.8125 557.792969 373.542969 C 543.804688 383.273438 508.554688 400.300781 483.023438 411.25 C 457.484375 422.191406 441.679688 464.765625 425.871094 498.121094 C 414.394531 522.332031 387.601562 571.890625 368.554688 606.132812 C 438.367188 727.871094 569.480469 809.933594 719.847656 809.933594 C 871.945312 809.933594 1004.378906 725.988281 1073.558594 601.929688 C 1055.949219 567.035156 1033.785156 528.765625 1026.535156 514.636719 "
        fill-opacity="1" fill-rule="nonzero" />
    <path fill="rgb(14.509583%, 18.03894%, 31.759644%)"
        d="M 881.398438 327.722656 C 880.660156 329.070312 879.890625 330.398438 879.109375 331.703125 C 879.890625 330.398438 880.660156 329.070312 881.398438 327.722656 "
        fill-opacity="1" fill-rule="nonzero" />
    <path fill="rgb(14.509583%, 18.03894%, 31.759644%)"
        d="M 885.796875 318.621094 C 885.371094 319.652344 884.925781 320.683594 884.449219 321.714844 C 884.925781 320.683594 885.371094 319.652344 885.796875 318.621094 "
        fill-opacity="1" fill-rule="nonzero" />
    <path fill="rgb(14.509583%, 18.03894%, 31.759644%)"
        d="M 883.699219 323.28125 C 883.207031 324.304688 882.675781 325.328125 882.140625 326.332031 C 882.675781 325.328125 883.207031 324.304688 883.699219 323.28125 "
        fill-opacity="1" fill-rule="nonzero" />
    <path fill="rgb(14.509583%, 18.03894%, 31.759644%)"
        d="M 878.945312 331.976562 C 878.085938 333.398438 877.207031 334.777344 876.320312 336.125 C 877.207031 334.777344 878.085938 333.398438 878.945312 331.976562 "
        fill-opacity="1" fill-rule="nonzero" />
    <path fill="rgb(14.509583%, 18.03894%, 31.759644%)"
        d="M 887.925781 312.726562 C 887.492188 314.199219 886.960938 315.691406 886.382812 317.183594 C 886.960938 315.691406 887.492188 314.199219 887.925781 312.726562 "
        fill-opacity="1" fill-rule="nonzero" />
    <path fill="rgb(14.509583%, 18.03894%, 31.759644%)"
        d="M 819.457031 85.316406 C 820.183594 86.160156 820.898438 87.003906 821.605469 87.859375 C 820.898438 87.003906 820.191406 86.160156 819.457031 85.316406 "
        fill-opacity="1" fill-rule="nonzero" />
    <path fill="rgb(14.509583%, 18.03894%, 31.759644%)"
        d="M 567.792969 329.742188 C 565.375 326.273438 563.058594 322.585938 561.023438 318.75 C 563.058594 322.585938 565.375 326.273438 567.792969 329.742188 "
        fill-opacity="1" fill-rule="nonzero" />
    <path fill="rgb(14.509583%, 18.03894%, 31.759644%)"
        d="M 597.429688 178.03125 C 599.160156 173.421875 600.820312 168.828125 602.644531 164.195312 C 600.820312 168.839844 599.160156 173.421875 597.429688 178.03125 "
        fill-opacity="1" fill-rule="nonzero" />
    <path fill="rgb(14.509583%, 18.03894%, 31.759644%)"
        d="M 672.253906 45.890625 C 674.585938 44.023438 676.9375 42.207031 679.296875 40.375 C 676.9375 42.207031 674.585938 44.023438 672.253906 45.890625 "
        fill-opacity="1" fill-rule="nonzero" />
    <path fill="rgb(14.509583%, 18.03894%, 31.759644%)"
        d="M 604.078125 160.71875 C 608.660156 149.195312 613.574219 137.707031 618.71875 126.316406 C 613.574219 137.71875 608.660156 149.1875 604.078125 160.71875 "
        fill-opacity="1" fill-rule="nonzero" />
    <path fill="rgb(14.509583%, 18.03894%, 31.759644%)"
        d="M 575.238281 339.414062 C 572.761719 336.457031 570.222656 333.210938 567.792969 329.742188 C 570.222656 333.210938 572.761719 336.457031 575.238281 339.414062 "
        fill-opacity="1" fill-rule="nonzero" />
    <path fill="rgb(14.509583%, 18.03894%, 31.759644%)"
        d="M 623.875 114.949219 C 626.011719 110.421875 628.253906 106 630.46875 101.542969 C 628.246094 106 626.011719 110.414062 623.875 114.949219 "
        fill-opacity="1" fill-rule="nonzero" />
    <path fill="rgb(18.818665%, 23.139954%, 39.99939%)"
        d="M 690.941406 433.082031 C 717.691406 486.761719 729.847656 498.121094 729.847656 498.121094 C 718.59375 485.253906 705.816406 449.359375 688.21875 415.820312 C 670.617188 382.269531 619.28125 364.347656 596.101562 349.519531 C 563.304688 328.539062 536.828125 274.71875 595.191406 239.652344 C 653.554688 204.585938 806.585938 215.542969 841.128906 230.925781 C 884.140625 250.089844 896.128906 281.101562 876.757812 322.160156 C 857.394531 363.207031 803.109375 394.226562 765.5 421.589844 C 727.898438 448.949219 729.847656 498.121094 729.847656 498.121094 C 729.847656 498.121094 738.367188 449.460938 766.632812 427.316406 C 794.90625 405.167969 840.101562 384.988281 860.671875 356.515625 C 863.125 353.117188 865.503906 350.332031 867.804688 347.96875 C 867.804688 347.960938 867.820312 347.945312 867.820312 347.9375 C 868.578125 346.972656 869.378906 345.925781 870.195312 344.835938 C 870.417969 344.535156 870.648438 344.222656 870.878906 343.914062 C 871.5 343.070312 872.140625 342.191406 872.777344 341.289062 C 873.058594 340.898438 873.332031 340.515625 873.613281 340.105469 C 874.253906 339.191406 874.898438 338.246094 875.546875 337.277344 C 875.800781 336.890625 876.058594 336.527344 876.320312 336.125 C 877.207031 334.777344 878.085938 333.398438 878.945312 331.976562 C 878.996094 331.890625 879.058594 331.796875 879.109375 331.703125 C 879.890625 330.398438 880.660156 329.070312 881.398438 327.722656 C 881.65625 327.261719 881.894531 326.800781 882.140625 326.332031 C 882.675781 325.328125 883.207031 324.304688 883.699219 323.28125 C 883.957031 322.761719 884.203125 322.242188 884.449219 321.714844 C 884.925781 320.683594 885.371094 319.652344 885.796875 318.621094 C 885.992188 318.144531 886.195312 317.667969 886.382812 317.183594 C 886.960938 315.691406 887.492188 314.199219 887.925781 312.726562 C 888.425781 311.019531 888.886719 309.300781 889.320312 307.578125 C 889.375 307.390625 889.375 307.203125 889.414062 307.023438 C 896.582031 277.523438 883.496094 246.351562 857.292969 230.953125 C 853.910156 228.964844 850.433594 227.132812 846.882812 225.457031 C 814.058594 209.945312 767.542969 209.945312 722.402344 209.945312 C 688.269531 209.945312 634.863281 216.292969 596.554688 231.984375 C 574.507812 241.007812 558.484375 260.769531 554.472656 284.066406 C 554.242188 285.378906 553.898438 286.65625 553.753906 287.996094 C 553.738281 288.132812 553.722656 288.269531 553.710938 288.40625 C 552.621094 298.664062 555.945312 309.164062 561.023438 318.75 C 563.058594 322.585938 565.375 326.273438 567.792969 329.742188 C 570.222656 333.210938 572.761719 336.457031 575.238281 339.414062 C 578.960938 343.855469 582.558594 347.621094 585.445312 350.492188 C 589.296875 354.308594 591.902344 356.515625 591.902344 356.515625 C 591.902344 356.515625 664.195312 379.414062 690.941406 433.082031 "
        fill-opacity="1" fill-rule="nonzero" />
    <path fill="rgb(8.628845%, 10.198975%, 13.328552%)"
        d="M 765.5 421.589844 C 803.109375 394.226562 857.394531 363.207031 876.757812 322.160156 C 896.128906 281.101562 884.140625 250.089844 841.128906 230.925781 C 806.585938 215.542969 653.554688 204.585938 595.191406 239.652344 C 536.828125 274.71875 563.304688 328.539062 596.101562 349.519531 C 619.28125 364.347656 670.617188 382.269531 688.21875 415.820312 C 705.816406 449.359375 718.59375 485.253906 729.847656 498.121094 C 729.847656 498.121094 727.898438 448.949219 765.5 421.589844 "
        fill-opacity="1" fill-rule="nonzero" />
    <path fill="rgb(13.328552%, 14.898682%, 26.269531%)"
        d="M 815.625 129.851562 C 803.109375 162.515625 773.03125 201.738281 797.652344 185.320312 C 817.097656 172.347656 834.367188 150.285156 849.488281 146.539062 L 849.503906 146.527344 C 849.417969 146.171875 849.308594 145.8125 849.222656 145.453125 C 848.796875 143.777344 848.347656 142.089844 847.894531 140.402344 C 847.324219 138.253906 846.710938 136.113281 846.070312 133.96875 C 845.636719 132.492188 845.195312 131.027344 844.71875 129.554688 C 843.96875 127.203125 843.097656 124.867188 842.222656 122.53125 C 841.753906 121.304688 841.328125 120.078125 840.816406 118.859375 C 839.359375 115.339844 837.75 111.835938 835.867188 108.421875 C 834.085938 105.183594 831.988281 101.953125 829.792969 98.738281 C 829.171875 97.84375 828.546875 96.949219 827.910156 96.0625 C 825.90625 93.304688 823.820312 90.558594 821.605469 87.859375 C 820.898438 87.003906 820.183594 86.160156 819.457031 85.316406 C 817.917969 83.503906 816.359375 81.6875 814.738281 79.925781 C 814.757812 79.976562 814.773438 80.035156 814.789062 80.085938 C 819.136719 94.503906 821.996094 113.242188 815.625 129.851562 "
        fill-opacity="1" fill-rule="nonzero" />
    <path fill="rgb(13.328552%, 14.898682%, 26.269531%)"
        d="M 668.640625 189.1875 C 691.035156 195.785156 690.941406 182.582031 679.910156 178.28125 C 668.886719 173.976562 661.757812 162.515625 645.09375 130.644531 C 638.738281 118.492188 635.824219 105.164062 634.632812 93.304688 C 634.625 93.242188 634.617188 93.191406 634.609375 93.132812 C 633.183594 95.886719 631.855469 98.75 630.46875 101.542969 C 628.253906 106 626.011719 110.421875 623.875 114.949219 C 622.101562 118.707031 620.433594 122.515625 618.71875 126.316406 C 613.574219 137.707031 608.660156 149.195312 604.078125 160.71875 C 603.617188 161.875 603.105469 163.035156 602.644531 164.195312 C 600.820312 168.828125 599.160156 173.421875 597.429688 178.03125 C 596.179688 181.398438 594.839844 184.78125 593.632812 188.113281 C 593.648438 188.105469 593.675781 188.089844 593.691406 188.070312 C 600.890625 183.257812 608.617188 175.28125 621.027344 164.195312 C 639.566406 147.628906 646.261719 182.582031 668.640625 189.1875 "
        fill-opacity="1" fill-rule="nonzero" />
    <path fill="rgb(13.328552%, 14.898682%, 26.269531%)"
        d="M 687.167969 56.25 C 694.589844 76.761719 736.867188 90.210938 725.757812 78.464844 C 714.652344 66.734375 698.585938 55.5625 704.617188 39.515625 C 708.601562 28.949219 711.882812 19.617188 716.710938 16.027344 C 716.730469 16.019531 716.746094 16.003906 716.753906 15.996094 C 716.660156 16.003906 716.566406 16.019531 716.464844 16.027344 C 715.339844 16.046875 714.234375 16.191406 713.125 16.351562 C 712.691406 16.414062 712.265625 16.429688 711.839844 16.515625 C 710.75 16.738281 709.675781 17.101562 708.609375 17.476562 C 708.183594 17.632812 707.75 17.714844 707.324219 17.894531 C 706.25 18.347656 705.210938 18.960938 704.171875 19.589844 C 703.78125 19.828125 703.371094 19.992188 702.988281 20.253906 C 701.582031 21.21875 700.203125 22.351562 698.855469 23.691406 C 696.820312 25.726562 694.777344 27.601562 692.730469 29.40625 C 692.398438 29.707031 692.058594 30.023438 691.726562 30.3125 C 689.800781 31.980469 687.875 33.574219 685.960938 35.125 C 685.449219 35.535156 684.945312 35.945312 684.433594 36.34375 C 682.722656 37.707031 681 39.046875 679.296875 40.375 C 676.9375 42.207031 674.585938 44.023438 672.253906 45.890625 C 672.234375 45.90625 672.21875 45.914062 672.210938 45.921875 C 675.992188 43.707031 682.304688 42.8125 687.167969 56.25 "
        fill-opacity="1" fill-rule="nonzero" />
    <path stroke-linecap="round" transform="matrix(0.218083, 0, 0, -0.218152, 70.743768, 1054.287159)" fill="none"
        stroke-linejoin="round" d="M 2742.81914 4609.941612 L 2742.81914 4609.941612 "
        stroke="rgb(13.328552%, 14.898682%, 26.269531%)" stroke-width="1.2" stroke-opacity="1" stroke-miterlimit="4" />
    <path fill="rgb(98.81897%, 86.669922%, 78.039551%)"
        d="M 858.527344 256.109375 C 857.871094 255.273438 857.164062 254.726562 856.472656 254.054688 C 853.007812 252.042969 849.171875 250.160156 845.09375 248.363281 C 839.65625 247.746094 835.421875 249.496094 835.421875 249.496094 C 835.753906 247.945312 835.984375 246.453125 836.257812 244.945312 C 799.261719 233.515625 684.296875 226.050781 619 245.125 C 619.257812 246.582031 619.476562 248.003906 619.792969 249.496094 C 619.792969 249.496094 614.792969 247.339844 608.640625 248.53125 C 606.589844 249.289062 604.621094 250.089844 602.714844 250.917969 C 600.660156 252.128906 598.617188 253.695312 596.691406 256.109375 C 586.792969 268.496094 599.996094 271.804688 603.292969 282.550781 C 606.589844 293.289062 613.191406 307.339844 628.59375 307.339844 C 628.59375 307.339844 665.480469 398.109375 727.609375 398.109375 C 789.738281 398.109375 826.625 307.339844 826.625 307.339844 C 842.023438 307.339844 848.628906 293.289062 851.925781 282.550781 C 855.230469 271.804688 868.425781 268.496094 858.527344 256.109375 "
        fill-opacity="1" fill-rule="nonzero" />
    <path fill="rgb(8.628845%, 10.198975%, 13.328552%)"
        d="M 825.132812 258.46875 C 822.933594 276.285156 811.492188 283.214844 789.789062 284.730469 C 768.082031 286.25 751.035156 277.410156 747.96875 265.285156 C 743.402344 247.183594 763.046875 241.859375 784.753906 240.34375 C 806.460938 238.824219 827.082031 242.644531 825.132812 258.46875 Z M 706.40625 264.816406 C 703.03125 277.078125 685.898438 286.222656 664.226562 284.910156 C 642.546875 283.605469 631.226562 276.722656 629.351562 258.714844 C 627.691406 242.746094 648.382812 238.664062 670.0625 239.976562 C 691.742188 241.289062 711.242188 247.183594 706.40625 264.816406 Z M 842.742188 237.34375 C 829.734375 235.46875 816.75 234.503906 804.097656 234.503906 C 764.1875 234.503906 742.054688 243.625 741.144531 244.007812 C 733.671875 247.144531 728.128906 246.828125 727.640625 246.800781 L 726.613281 246.625 L 726.269531 246.808594 C 724.660156 246.84375 719.675781 246.691406 713.28125 244.007812 C 712.367188 243.625 690.234375 234.503906 650.324219 234.503906 C 637.683594 234.503906 624.675781 235.46875 611.675781 237.34375 L 609.707031 237.625 C 609.707031 237.625 620.269531 249.007812 621.523438 259.609375 C 622.808594 270.492188 628.210938 285.3125 660.078125 288.269531 C 683.820312 290.457031 703.6875 284.074219 711.492188 271.984375 C 713.09375 269.496094 714.257812 266.972656 715.308594 264.730469 C 716.738281 261.671875 718.085938 258.773438 719.804688 257.777344 C 722.300781 256.347656 725.792969 256.234375 726.953125 256.234375 L 728.066406 256.242188 C 729.441406 256.277344 732.421875 256.515625 734.621094 257.777344 C 736.347656 258.773438 737.695312 261.671875 739.117188 264.738281 C 740.164062 266.972656 741.332031 269.496094 742.933594 271.984375 C 749.6875 282.457031 765.421875 288.710938 784.992188 288.710938 C 788.023438 288.710938 791.175781 288.558594 794.355469 288.269531 C 826.207031 285.3125 831.613281 270.492188 832.902344 259.609375 C 834.152344 249.007812 844.71875 237.625 844.71875 237.625 L 842.742188 237.34375 "
        fill-opacity="1" fill-rule="nonzero" />
    <path fill="rgb(72.549438%, 71.759033%, 71.369934%)"
        d="M 436.066406 426.496094 C 436.46875 425.796875 436.9375 425.160156 437.40625 424.511719 C 436.9375 425.160156 436.476562 425.796875 436.066406 426.496094 "
        fill-opacity="1" fill-rule="nonzero" />
    <path fill="rgb(72.549438%, 71.759033%, 71.369934%)"
        d="M 447.710938 415.707031 C 448.054688 415.546875 448.375 415.351562 448.726562 415.195312 C 448.375 415.351562 448.0625 415.546875 447.710938 415.707031 "
        fill-opacity="1" fill-rule="nonzero" />
    <path fill="rgb(72.549438%, 71.759033%, 71.369934%)"
        d="M 438.75 422.746094 C 439.226562 422.167969 439.695312 421.589844 440.222656 421.058594 C 439.695312 421.589844 439.234375 422.167969 438.75 422.746094 "
        fill-opacity="1" fill-rule="nonzero" />
    <path fill="rgb(72.549438%, 71.759033%, 71.369934%)"
        d="M 436.066406 426.496094 C 433.476562 430.960938 432.070312 436.175781 432.421875 441.742188 L 449.1875 706.0625 C 485.066406 738.371094 526.785156 764.265625 572.53125 782.160156 L 867.164062 782.160156 C 871.125 780.609375 875.085938 779.070312 878.988281 777.398438 C 646.109375 750.105469 463.507812 606.421875 436.066406 426.496094 "
        fill-opacity="1" fill-rule="nonzero" />
    <path fill="rgb(72.549438%, 71.759033%, 71.369934%)"
        d="M 453.171875 413.75 C 453.574219 413.65625 453.972656 413.585938 454.375 413.507812 C 453.972656 413.578125 453.574219 413.65625 453.171875 413.75 "
        fill-opacity="1" fill-rule="nonzero" />
    <path fill="rgb(72.549438%, 71.759033%, 71.369934%)"
        d="M 443.1875 418.460938 C 443.664062 418.09375 444.175781 417.777344 444.671875 417.445312 C 444.167969 417.769531 443.675781 418.09375 443.1875 418.460938 "
        fill-opacity="1" fill-rule="nonzero" />
    <path fill="rgb(82.348633%, 81.959534%, 81.17981%)"
        d="M 721.253906 642.398438 C 699.136719 642.398438 681.207031 624.460938 681.207031 602.332031 C 681.207031 580.199219 699.136719 562.261719 721.253906 562.261719 C 743.375 562.261719 761.308594 580.199219 761.308594 602.332031 C 761.308594 624.460938 743.375 642.398438 721.253906 642.398438 Z M 1007.035156 436.03125 C 1005.117188 423.070312 993.933594 412.972656 980.277344 412.972656 L 459.417969 412.972656 C 457.6875 412.972656 456.007812 413.195312 454.375 413.507812 C 453.972656 413.585938 453.574219 413.65625 453.171875 413.75 C 451.640625 414.113281 450.140625 414.582031 448.726562 415.195312 C 448.375 415.351562 448.054688 415.546875 447.710938 415.707031 C 446.65625 416.226562 445.640625 416.800781 444.671875 417.445312 C 444.175781 417.777344 443.664062 418.09375 443.1875 418.460938 C 442.140625 419.253906 441.144531 420.113281 440.222656 421.058594 C 439.695312 421.589844 439.226562 422.167969 438.75 422.746094 C 438.273438 423.316406 437.820312 423.898438 437.40625 424.511719 C 436.9375 425.160156 436.46875 425.796875 436.066406 426.496094 C 463.507812 606.421875 646.109375 750.105469 878.988281 777.398438 C 920.117188 759.792969 957.730469 735.566406 990.507812 706.0625 L 1007.273438 441.742188 C 1007.394531 439.796875 1007.308594 437.882812 1007.035156 436.03125 "
        fill-opacity="1" fill-rule="nonzero" />
    <path fill="rgb(44.309998%, 43.528748%, 43.139648%)"
        d="M 685.585938 808.382812 L 754.109375 808.382812 C 793.699219 805.066406 831.640625 796.050781 867.164062 782.160156 L 572.53125 782.160156 C 608.054688 796.050781 645.996094 805.066406 685.585938 808.382812 "
        fill-opacity="1" fill-rule="nonzero" />
    <path fill="rgb(100%, 100%, 100%)"
        d="M 721.253906 562.261719 C 699.136719 562.261719 681.207031 580.199219 681.207031 602.332031 C 681.207031 624.460938 699.136719 642.398438 721.253906 642.398438 C 743.375 642.398438 761.308594 624.460938 761.308594 602.332031 C 761.308594 580.199219 743.375 562.261719 721.253906 562.261719 "
        fill-opacity="1" fill-rule="nonzero" />
</svg>